<svg width="193" height="188" viewBox="0 0 193 188" fill="none" xmlns="http://www.w3.org/2000/svg">
<path d="M92.1132 187.89L16.3003 187.234V109.136L92.1132 69.8896V187.89ZM20.6762 182.878L87.7372 183.469V77.0691L20.6762 111.784V182.878Z" fill="#1D1D1B"/>
<path d="M176.7 14.9277H172.324V34.1896H176.7V14.9277Z" fill="#1D1D1B"/>
<path d="M88.0436 188L87.7373 48.7894L176.7 0V9.03994H172.324V7.3983L92.1132 51.3722L92.4195 183.6L172.324 183.294V40.0559H176.7V187.672L88.0436 188Z" fill="#1D1D1B"/>
<path d="M37.2827 101.804H32.9067V185.483H37.2827V101.804Z" fill="#1D1D1B"/>
<path d="M111.849 40.0557H107.473V186.117H111.849V40.0557Z" fill="#1D1D1B"/>
<path d="M91.8507 178.829H55.8369V147.2H91.8507V178.829ZM60.2128 174.451H87.4748V151.578H60.2128V174.451Z" fill="#1D1D1B"/>
<path d="M91.8507 130.258H55.8369V98.6074H91.8507V130.258ZM60.2128 125.88H87.4748V102.985H60.2128V125.88Z" fill="#1D1D1B"/>
<path d="M176.656 82.6066H140.598V51.0654H176.612L176.656 82.6066ZM145.018 78.229H172.28V55.4431H144.974L145.018 78.229Z" fill="#1D1D1B"/>
<path d="M176.656 130.871H140.598V99.2207H176.612L176.656 130.871ZM145.018 126.494H172.28V103.598H144.974L145.018 126.494Z" fill="#1D1D1B"/>
<path d="M176.656 177.275H140.598V145.624H176.612L176.656 177.275ZM145.018 172.897H172.28V150.002H144.974L145.018 172.897Z" fill="#1D1D1B"/>
<path d="M193 183.601H0V187.978H193V183.601Z" fill="#1D1D1B"/>
</svg>
