<svg width="187" height="175" viewBox="0 0 187 175" fill="none" xmlns="http://www.w3.org/2000/svg">
<g clip-path="url(#clip0_66_1974)">
<path d="M131.927 46.8359H127.082V63.8518H131.927V46.8359Z" fill="#1D1D1B"/>
<path d="M132.291 175H2.18066V40.9539L40.8503 2.32324H131.927V41.317H127.082V7.16418H42.8613L7.02648 42.9629V170.159H127.445V159.823H132.291V175Z" fill="#1D1D1B"/>
<path d="M43.1035 43.762L0 43.4474L43.3943 -0.121094L43.1035 43.762ZM11.6057 38.7033L38.2577 38.8969L38.4515 11.7876L11.6057 38.7033Z" fill="#1D1D1B"/>
<path d="M108.328 70.9199H25.7798V75.7609H108.328V70.9199Z" fill="#1D1D1B"/>
<path d="M95.8987 93.9141H25.7798V98.755H95.8987V93.9141Z" fill="#1D1D1B"/>
<path d="M83.4936 116.521H25.4165V121.362H83.4936V116.521Z" fill="#1D1D1B"/>
<path d="M72.8811 138.79H25.7798V143.631H72.8811V138.79Z" fill="#1D1D1B"/>
<path d="M80.2466 162.777L82.6695 155.637C86.5461 144.212 95.6078 117.442 97.2069 113.254L97.4007 112.746L154.557 58.2612C156.103 56.7987 158.165 56.0061 160.294 56.0559C162.422 56.1058 164.445 56.9942 165.921 58.5274L184.795 78.3511C185.522 79.1123 186.092 80.0092 186.472 80.9905C186.852 81.9718 187.035 83.0182 187.01 84.0701C186.986 85.122 186.754 86.1587 186.328 87.1211C185.902 88.0834 185.291 88.9526 184.528 89.6789L127.736 143.317L127.348 143.486C124.925 144.575 121.606 145.906 118.213 147.359C113.368 149.368 108.28 151.473 105.639 152.781L80.2466 162.777ZM101.52 115.481C99.6782 120.491 92.2399 142.445 88.1694 154.426L103.555 148.351C106.147 147.044 111.26 144.938 116.227 142.881C119.425 141.574 122.526 140.267 124.901 139.25L181.161 86.1692C181.754 85.5748 182.087 84.7697 182.087 83.9303C182.087 83.0909 181.754 82.2857 181.161 81.6913L162.286 61.8677C161.702 61.2577 160.902 60.9014 160.057 60.8753C159.637 60.8666 159.219 60.9412 158.828 61.0949C158.437 61.2487 158.081 61.4784 157.78 61.7709L101.52 115.481Z" fill="#1D1D1B"/>
<path d="M101.139 112.327L97.6631 115.699L124.08 142.874L127.556 139.502L101.139 112.327Z" fill="#1D1D1B"/>
<path d="M91.4696 139.765L88.084 143.229L99.2475 154.119L102.633 150.656L91.4696 139.765Z" fill="#1D1D1B"/>
</g>
<defs>
<clipPath id="clip0_66_1974">
<rect width="187" height="175" fill="white"/>
</clipPath>
</defs>
</svg>
