<svg width="110" height="172" viewBox="0 0 110 172" fill="none" xmlns="http://www.w3.org/2000/svg">
<g clip-path="url(#clip0_66_1959)">
<path d="M96.2974 0H79.8052V4.49145H96.2974V0Z" fill="black"/>
<path d="M110 22.592V8.30918C110 6.10545 109.13 3.99198 107.582 2.4337C106.033 0.875431 103.933 0 101.743 0V4.49145C102.241 4.49145 102.734 4.5902 103.195 4.78206C103.655 4.97392 104.073 5.25513 104.425 5.60964C104.778 5.96415 105.057 6.38501 105.248 6.8482C105.438 7.31139 105.537 7.80783 105.537 8.30918V22.592C105.537 23.6045 105.137 24.5756 104.425 25.2915C103.714 26.0075 102.749 26.4097 101.743 26.4097H8.79286C7.7846 26.4097 6.81731 26.0082 6.10228 25.2929C5.38724 24.5776 4.98259 23.6066 4.97669 22.592V8.30918C4.98259 7.2946 5.38724 6.32359 6.10228 5.60826C6.81731 4.89294 7.7846 4.49143 8.79286 4.49145H74.3376V0H8.79286C6.60085 -8.01284e-06 4.49827 0.874711 2.94619 2.43234C1.39411 3.98997 0.519222 6.10339 0.513313 8.30918V22.592C0.519222 24.7978 1.39411 26.9112 2.94619 28.4688C4.49827 30.0265 6.60085 30.9012 8.79286 30.9012H14.8408C14.997 35.707 16.2468 48.6873 24.8834 58.7257C30.9313 64.7891 37.3139 70.4708 42.9154 75.5013C47.044 79.1842 50.9495 82.6651 54.0739 85.6968H54.1854L53.5606 86.3032C50.4808 89.3125 46.5754 92.8158 42.4021 96.4988C36.7783 101.529 30.418 107.211 24.2362 113.387C15.7781 123.245 14.506 136.091 14.3275 140.964H8.25728C6.06527 140.97 3.96504 141.85 2.41714 143.412C0.869245 144.974 -7.96277e-06 147.09 0 149.296V163.556C-7.96277e-06 165.762 0.869245 167.878 2.41714 169.44C3.96504 171.001 6.06527 171.882 8.25728 171.888H101.207C103.401 171.882 105.504 171.002 107.055 169.441C108.607 167.88 109.481 165.764 109.487 163.556V149.408C109.487 148.314 109.273 147.23 108.856 146.22C108.44 145.209 107.831 144.29 107.062 143.517C106.293 142.743 105.38 142.129 104.376 141.711C103.371 141.292 102.295 141.076 101.207 141.076H94.5122C94.8023 135.642 94.5121 122.1 86.411 112.331L86.2102 112.129C84.157 110.243 82.5502 108.716 81.0327 107.301C76.0114 102.54 72.1059 98.7894 56.4841 86.2807L57.0197 85.854C72.4853 73.3229 76.4577 69.5725 81.5683 64.8341C83.0635 63.3968 84.6703 61.8922 86.7235 60.0058L86.9243 59.7812C95.0923 50.0123 94.9361 36.4481 94.4675 30.9236H101.832C104.01 30.8999 106.091 30.011 107.621 28.4504C109.151 26.8899 110.006 24.7841 110 22.592ZM105.023 149.408V163.668C105.017 164.685 104.614 165.658 103.899 166.377C103.185 167.096 102.218 167.503 101.207 167.509H8.25728C7.24904 167.503 6.28409 167.095 5.57323 166.376C4.86238 165.656 4.46336 164.683 4.46338 163.668V149.408C4.46336 148.393 4.86238 147.42 5.57323 146.701C6.28409 145.981 7.24904 145.574 8.25728 145.568H101.207C102.218 145.574 103.185 145.98 103.899 146.699C104.614 147.418 105.017 148.391 105.023 149.408ZM89.8925 31.0584C90.1765 34.0458 90.1765 37.0538 89.8925 40.0413C84.8042 39.1205 70.7446 37.2566 59.4969 42.5789C47.8474 48.081 28.2532 49.4733 23.7898 49.1589C21.1383 43.6129 19.6206 37.5875 19.3264 31.4401L89.8925 31.0584ZM89.8925 140.942L18.7463 140.74C19.0619 134.399 20.6724 128.191 23.4774 122.504C27.5391 121.628 46.62 117.249 53.2258 111.096C54.0815 110.366 54.8799 109.57 55.6137 108.716C59.7424 112.084 69.9412 119.54 80.3186 120.73L86.4334 120.955C89.1299 127.253 90.3369 134.095 89.9594 140.942H89.8925ZM77.819 110.579C79.3142 111.994 80.9211 113.499 82.9296 115.34L83.7107 116.373H80.6533C69.0708 115.026 56.8189 103.977 56.685 103.865L54.6987 101.799L53.3597 104.359C52.535 105.667 51.4755 106.809 50.2354 107.727C46.0621 111.612 34.6135 115.116 27.0258 117.047C27.1597 116.89 27.2713 116.733 27.4275 116.576C33.3861 110.602 39.7018 104.965 45.281 99.9797C48.8294 96.7907 52.2439 93.759 55.1228 90.9968C69.294 102.45 73.1102 106.043 77.886 110.579H77.819ZM83.4429 56.6821C81.4344 58.5236 79.8499 60.0282 78.3547 61.443C73.5565 65.9345 69.7403 69.5725 55.6584 81.0033C52.7795 78.2635 49.3873 75.2318 45.8166 72.0204C40.2374 67.0349 33.9217 61.3981 28.0747 55.5592C27.4945 54.8631 26.9588 54.1669 26.4455 53.4482C34.7697 53.291 51.195 51.2025 61.2599 46.4416C71.3248 41.6806 84.5811 43.4772 89.0667 44.1959C88.2808 48.8212 86.372 53.1796 83.5099 56.8842L83.4429 56.6821Z" fill="black"/>
</g>
<defs>
<clipPath id="clip0_66_1959">
<rect width="110" height="172" fill="white"/>
</clipPath>
</defs>
</svg>
