<svg width="134" height="155" viewBox="0 0 134 155" fill="none" xmlns="http://www.w3.org/2000/svg">
<g clip-path="url(#clip0_66_1957)">
<path d="M125.884 155H8.11648C5.96386 155 3.89937 154.145 2.37725 152.623C0.855118 151.101 0 149.038 0 146.886V56.8433C0 55.7778 0.209974 54.7227 0.617863 53.7382C1.02575 52.7538 1.62357 51.8593 2.37725 51.1059C3.13093 50.3524 4.02569 49.7547 5.01042 49.3469C5.99515 48.9392 7.05061 48.7292 8.11648 48.7292H21.1342L46.4954 24.5667C46.3163 23.4971 46.2261 22.4146 46.2256 21.3301C46.2368 20.3271 46.3346 19.3269 46.5179 18.3406C47.1174 13.1214 49.6879 8.32802 53.7041 4.93996C57.7204 1.5519 62.8792 -0.175115 68.1264 0.11185C73.3736 0.398815 78.3132 2.67812 81.9358 6.48393C85.5584 10.2898 87.5906 15.3348 87.6171 20.5883C87.6106 21.5916 87.5127 22.5922 87.3248 23.5778C87.3248 23.8025 87.3248 24.0497 87.3248 24.297L112.956 48.7292H125.973C128.075 48.7448 130.09 49.5681 131.601 51.0284C133.112 52.4888 134.003 54.4743 134.09 56.5736L129.593 56.7985C129.565 55.852 129.173 54.9528 128.499 54.2875C127.825 53.6221 126.921 53.2415 125.973 53.2246H111.157L82.446 25.8704L82.6933 24.6342C82.8057 24.0947 82.8956 23.5328 82.9631 22.9709C83.1148 22.1854 83.1975 21.3882 83.2104 20.5883C83.19 16.4683 81.5919 12.5125 78.7446 9.53382C75.8972 6.55514 72.0169 4.77975 67.9008 4.57257C63.7847 4.36539 59.7456 5.74209 56.6134 8.41979C53.4811 11.0975 51.4936 14.8728 51.0594 18.97C50.9077 19.7479 50.825 20.5377 50.8121 21.3301C50.816 22.5177 50.9517 23.7012 51.2168 24.8589L51.4866 26.0952L23.0453 53.2246H8.20636C7.24633 53.2246 6.32565 53.6059 5.64681 54.2845C4.96797 54.9632 4.5866 55.8836 4.5866 56.8433V146.886C4.5866 147.845 4.96797 148.766 5.64681 149.444C6.32565 150.123 7.24633 150.504 8.20636 150.504H125.973C126.449 150.504 126.92 150.411 127.359 150.229C127.798 150.047 128.197 149.78 128.533 149.444C128.869 149.108 129.136 148.709 129.318 148.27C129.5 147.831 129.593 147.361 129.593 146.886V79.5675H134.09V146.886C134.09 147.959 133.877 149.021 133.464 150.011C133.05 151.002 132.444 151.9 131.681 152.655C130.918 153.41 130.012 154.005 129.017 154.408C128.022 154.81 126.957 155.012 125.884 155ZM61.0869 126.229H60.907C60.263 126.21 59.6302 126.056 59.0493 125.778C58.4684 125.499 57.9523 125.101 57.5346 124.611L37.8617 104.966C36.9647 104.016 36.452 102.766 36.4228 101.46C36.4169 100.812 36.5413 100.17 36.7885 99.5719C37.0357 98.9734 37.4007 98.4307 37.8617 97.976L41.2567 94.3348C41.6519 93.8844 42.1397 93.5246 42.6869 93.2802C43.2341 93.0358 43.8275 92.9125 44.4268 92.9187C45.0868 92.9723 45.7281 93.1641 46.3091 93.4816C46.8902 93.7991 47.3979 94.2354 47.7993 94.7618L61.0644 108.518L84.9191 82.6018C85.4468 82.0601 86.0806 81.6328 86.7807 81.3467C87.4809 81.0605 88.2324 80.9216 88.9886 80.9385C89.608 80.955 90.2174 81.0993 90.7784 81.3623C91.3394 81.6253 91.8399 82.0014 92.2487 82.4669L96.0258 86.0857C96.8996 86.9652 97.4266 88.1305 97.5098 89.3673C97.5892 90.0158 97.5343 90.6736 97.3487 91.3C97.163 91.9264 96.8505 92.508 96.4305 93.0086L96.2282 93.2558L64.7517 124.723C64.2714 125.205 63.6999 125.586 63.0707 125.845C62.4415 126.103 61.7672 126.234 61.0869 126.229ZM44.247 97.6388L41.1218 101.078C40.942 101.28 40.9194 101.347 40.9194 101.46C40.9255 101.577 40.9733 101.689 41.0543 101.775L61.0644 121.734C61.1469 121.739 61.2291 121.722 61.3038 121.687C61.3784 121.652 61.443 121.598 61.4916 121.532L92.9681 90.0641C93.103 89.8843 93.1255 89.8169 93.1255 89.7944V89.4572C93.0914 89.3441 93.0382 89.2378 92.9681 89.1426L88.8987 85.5688C88.7612 85.5037 88.6066 85.4838 88.4571 85.5121C88.3076 85.5404 88.171 85.6153 88.0668 85.7261L63.9199 112.001C63.1472 112.755 62.1103 113.177 61.0307 113.177C59.9511 113.177 58.9143 112.755 58.1416 112.001L44.3819 97.7286L44.247 97.6388ZM133.888 75.5666H129.391V60.7094H133.888V75.5666ZM107.672 53.0898H26.4628L52.2285 28.5901L53.7349 30.7029C55.1979 32.7658 57.1278 34.454 59.3674 35.6296C61.6069 36.8053 64.0927 37.4352 66.622 37.4681C69.1513 37.5009 71.6525 36.9358 73.9219 35.8187C76.1912 34.7017 78.1645 33.0642 79.6806 31.04L81.1644 29.107L107.672 53.0898ZM37.5919 48.5944H96.0483L81.659 35.6253C79.7156 37.6578 77.3753 39.2694 74.783 40.3601C72.1907 41.4508 69.4019 41.9973 66.5896 41.9657C63.7773 41.9341 61.0014 41.325 58.4344 40.1764C55.8673 39.0277 53.5636 37.3639 51.6665 35.2882L37.5919 48.5944ZM66.8201 34.0295C64.2197 34.025 61.679 33.2501 59.519 31.8026C57.359 30.3551 55.6767 28.2999 54.6846 25.8969C53.6926 23.4938 53.4354 20.8507 53.9454 18.3015C54.4554 15.7524 55.7099 13.4116 57.5502 11.5749C59.3905 9.73823 61.7341 8.48818 64.2849 7.98264C66.8356 7.4771 69.479 7.73876 71.8811 8.73463C74.2831 9.7305 76.3361 11.4159 77.7803 13.5777C79.2245 15.7395 79.9953 18.2809 79.9953 20.8805C79.9839 24.3312 78.6184 27.6397 76.1925 30.0944C73.7665 32.5491 70.4739 33.954 67.0226 34.007L66.8201 34.0295ZM66.8201 12.2269C65.1091 12.2314 63.4377 12.7427 62.0172 13.6963C60.5967 14.6499 59.4907 16.0028 58.839 17.5845C58.1873 19.1661 58.0192 20.9053 58.3557 22.5825C58.6923 24.2596 59.5184 25.7994 60.7299 27.0074C61.9413 28.2154 63.4837 29.0373 65.1622 29.3694C66.8407 29.7015 68.58 29.5288 70.1604 28.8732C71.7408 28.2176 73.0913 27.1084 74.0414 25.6859C74.9916 24.2633 75.4986 22.5911 75.4986 20.8805C75.4992 18.6141 74.6127 16.4375 73.0287 14.8161C71.4447 13.1947 69.289 12.2573 67.0226 12.2044L66.8201 12.2269Z" fill="black"/>
</g>
<defs>
<clipPath id="clip0_66_1957">
<rect width="134" height="155" fill="white"/>
</clipPath>
</defs>
</svg>
