<svg width="106" height="165" viewBox="0 0 106 165" fill="none" xmlns="http://www.w3.org/2000/svg">
<g clip-path="url(#clip0_66_1954)">
<path d="M92.7958 0H76.9033V4.30866H92.7958V0Z" fill="black"/>
<path d="M106 21.6725V7.97102C106 5.85697 105.162 3.82951 103.669 2.33466C102.177 0.839803 100.153 0 98.0431 0V4.30866C98.5232 4.30866 98.9986 4.40339 99.4421 4.58744C99.8857 4.77149 100.289 5.04126 100.628 5.38134C100.968 5.72142 101.237 6.12515 101.421 6.56949C101.604 7.01383 101.699 7.49007 101.699 7.97102V21.6725C101.699 22.6439 101.314 23.5754 100.628 24.2622C99.9426 24.9491 99.0127 25.3349 98.0431 25.3349H8.47312C7.50153 25.3349 6.56941 24.9498 5.88038 24.2635C5.19134 23.5773 4.8014 22.6458 4.79572 21.6725V7.97102C4.8014 6.99772 5.19134 6.06623 5.88038 5.38002C6.56941 4.69381 7.50153 4.30864 8.47312 4.30866H71.6344V0H8.47312C6.36082 -7.68674e-06 4.33469 0.839112 2.83905 2.33335C1.34341 3.82759 0.500341 5.85499 0.494647 7.97102V21.6725C0.500341 23.7886 1.34341 25.816 2.83905 27.3102C4.33469 28.8045 6.36082 29.6436 8.47312 29.6436H14.3011C14.4517 34.2538 15.656 46.7058 23.9785 56.3357C29.8065 62.1524 35.957 67.6028 41.3549 72.4285C45.3334 75.9616 49.0968 79.3008 52.1075 82.2092H52.215L51.6129 82.7908C48.6452 85.6776 44.8817 89.0384 40.8602 92.5715C35.4409 97.3972 29.3119 102.848 23.3549 108.772C15.2043 118.23 13.9785 130.552 13.8065 135.227H7.95702C5.84472 135.233 3.82086 136.077 2.32925 137.576C0.837636 139.074 -7.67321e-06 141.104 0 143.22V156.9C-7.67321e-06 159.016 0.837636 161.045 2.32925 162.544C3.82086 164.042 5.84472 164.887 7.95702 164.892H97.527C99.6412 164.887 101.667 164.043 103.162 162.545C104.657 161.047 105.5 159.018 105.505 156.9V143.327C105.505 142.278 105.299 141.239 104.898 140.269C104.497 139.299 103.909 138.418 103.169 137.676C102.428 136.934 101.548 136.345 100.58 135.943C99.6122 135.542 98.5747 135.335 97.527 135.335H91.0753C91.3549 130.121 91.0753 117.131 83.2688 107.76L83.0753 107.566C81.0968 105.756 79.5484 104.291 78.086 102.934C73.2473 98.3666 69.4839 94.7689 54.4301 82.7693L54.9463 82.36C69.8495 70.3388 73.6775 66.7411 78.6022 62.1955C80.043 60.8167 81.5914 59.3733 83.5699 57.5637L83.7635 57.3482C91.6344 47.9769 91.4839 34.9647 91.0323 29.6651H98.129C100.228 29.6424 102.233 28.7896 103.708 27.2926C105.182 25.7955 106.006 23.7755 106 21.6725ZM101.204 143.327V157.007C101.199 157.983 100.809 158.916 100.121 159.606C99.4326 160.296 98.5005 160.686 97.527 160.691H7.95702C6.98543 160.686 6.05557 160.295 5.37057 159.605C4.68556 158.915 4.30106 157.981 4.30107 157.007V143.327C4.30106 142.354 4.68556 141.42 5.37057 140.73C6.05557 140.04 6.98543 139.649 7.95702 139.644H97.527C98.5005 139.649 99.4326 140.039 100.121 140.729C100.809 141.418 101.199 142.352 101.204 143.327ZM86.6236 29.7944C86.8974 32.6603 86.8974 35.5458 86.6236 38.4117C81.7204 37.5284 68.172 35.7403 57.3333 40.8461C46.1075 46.1242 27.2258 47.4599 22.9247 47.1582C20.3697 41.8379 18.9071 36.0578 18.6237 30.1606L86.6236 29.7944ZM86.6236 135.206L18.0646 135.012C18.3687 128.929 19.9207 122.974 22.6237 117.519C26.5377 116.678 44.9247 112.477 51.2903 106.575C52.1149 105.874 52.8843 105.11 53.5914 104.291C57.5699 107.523 67.3979 114.675 77.3979 115.817L83.2903 116.032C85.8888 122.074 87.052 128.637 86.6882 135.206H86.6236ZM74.9892 106.079C76.4301 107.436 77.9785 108.88 79.914 110.646L80.6667 111.637H77.7205C66.5592 110.345 54.7527 99.7454 54.6237 99.6377L52.7097 97.6557L51.4194 100.112C50.6246 101.367 49.6036 102.462 48.4086 103.343C44.3871 107.07 33.3549 110.431 26.043 112.284C26.1721 112.133 26.2796 111.982 26.4301 111.831C32.1721 106.101 38.2581 100.693 43.6344 95.9107C47.0538 92.8516 50.3441 89.9432 53.1183 87.2934C66.7742 98.2805 70.4517 101.727 75.0538 106.079H74.9892ZM80.4086 54.3753C78.4731 56.1418 76.9463 57.5852 75.5054 58.9424C70.8818 63.2511 67.2043 66.7411 53.6344 77.7066C50.8602 75.0783 47.5914 72.17 44.1505 69.0893C38.7742 64.3067 32.6882 58.8993 27.0538 53.2981C26.4947 52.6303 25.9785 51.9624 25.4839 51.273C33.5054 51.1222 49.3334 49.1187 59.0323 44.5515C68.7312 39.9843 81.5054 41.7078 85.828 42.3972C85.0706 46.8343 83.2312 51.0153 80.4731 54.5691L80.4086 54.3753Z" fill="black"/>
</g>
<defs>
<clipPath id="clip0_66_1954">
<rect width="106" height="165" fill="white"/>
</clipPath>
</defs>
</svg>
