<svg width="25" height="18" viewBox="0 0 25 18" fill="none" xmlns="http://www.w3.org/2000/svg">
<path fill-rule="evenodd" clip-rule="evenodd" d="M12.9386 0C13.3019 0 13.5965 0.281124 13.5965 0.627907V9.57712L16.6602 6.65305C16.9171 6.40784 17.3337 6.40784 17.5906 6.65305C17.8475 6.89826 17.8475 7.29583 17.5906 7.54105L13.4038 11.537C13.1469 11.7822 12.7303 11.7822 12.4734 11.537L8.28658 7.54105C8.02965 7.29583 8.02965 6.89826 8.28658 6.65305C8.5435 6.40784 8.96006 6.40784 9.21698 6.65305L12.2807 9.57712V0.627907C12.2807 0.281124 12.5753 0 12.9386 0ZM0.657895 6.27907C1.02124 6.27907 1.31579 6.56019 1.31579 6.90698V16.7442H24.3421C24.7055 16.7442 25 17.0253 25 17.3721C25 17.7189 24.7055 18 24.3421 18H0.657895C0.294549 18 0 17.7189 0 17.3721V6.90698C0 6.56019 0.294549 6.27907 0.657895 6.27907ZM24.3421 6.27907C24.7055 6.27907 25 6.56019 25 6.90698V12.6735C25 13.0203 24.7055 13.3014 24.3421 13.3014C23.9788 13.3014 23.6842 13.0203 23.6842 12.6735V6.90698C23.6842 6.56019 23.9788 6.27907 24.3421 6.27907Z" fill="black"/>
</svg>
