<svg width="165" height="165" viewBox="0 0 165 165" fill="none" xmlns="http://www.w3.org/2000/svg">
<path d="M88.0231 165L76.3577 121.03L74.8964 121.427L69.6209 122.616L42.3769 95.3517L43.9868 88.61L0 77.1093L61.7697 49.0764C72.3383 34.2195 86.2372 22.0465 102.353 13.5328C118.469 5.01914 136.353 0.401462 154.573 0.0498047H162.573C162.861 0.0580676 163.146 0.116804 163.415 0.223324C163.746 0.351296 164.043 0.554979 164.282 0.818163C164.531 1.0917 164.725 1.41174 164.851 1.76004C164.931 2.0171 164.972 2.28425 164.975 2.55321L164.628 10.2368C164.628 10.8942 164.368 11.5246 163.903 11.9895C163.439 12.4543 162.809 12.7154 162.152 12.7154C161.495 12.7154 160.865 12.4543 160.4 11.9895C159.936 11.5246 159.675 10.8942 159.675 10.2368L159.898 5.10616H154.622C137.092 5.44547 119.887 9.90736 104.398 18.1313C88.9085 26.3553 75.57 38.1106 65.4601 52.4472C63.6273 55.8925 59.1196 65.1376 55.3054 73.4409L91.862 109.604C99.7133 105.911 108.382 101.647 111.998 99.6892H112.196C132.31 85.659 147.136 65.2792 154.3 41.8141C154.398 41.5033 154.556 41.2147 154.765 40.9648C154.974 40.715 155.23 40.5089 155.519 40.3581C155.807 40.2074 156.123 40.115 156.447 40.0863C156.771 40.0575 157.098 40.093 157.409 40.1907C157.719 40.2883 158.008 40.4462 158.257 40.6554C158.507 40.8646 158.713 41.1208 158.864 41.4097C159.014 41.6985 159.107 42.0143 159.135 42.3388C159.164 42.6634 159.129 42.9904 159.031 43.3012C151.578 67.5935 136.271 88.719 115.515 103.358L88.0231 165ZM81.113 119.592L89.311 150.178L108.63 106.927C100.332 111.016 87.2553 117.263 81.113 119.592ZM47.7266 93.8646L71.2061 117.163L73.6828 116.593L77.9923 115.428C79.8499 114.833 83.1439 113.421 87.0324 111.661L53.1755 78.1007C51.4913 81.893 50.1539 85.0903 49.5595 86.9245L49.4109 87.2963L47.7266 93.8646ZM14.7118 75.8204L45.349 83.975C47.6276 77.9024 53.8194 64.6667 58.0051 56.1899L14.7118 75.8204Z" fill="black"/>
<path d="M120.32 60.1311C116.733 60.1123 113.263 58.8513 110.499 56.5623C107.736 54.2732 105.85 51.0974 105.161 47.5742C104.472 44.0511 105.024 40.3981 106.721 37.2357C108.419 34.0733 111.158 31.5966 114.474 30.2264C117.79 28.8561 121.477 28.6769 124.91 29.7192C128.342 30.7614 131.309 32.9608 133.305 35.9437C135.301 38.9266 136.203 42.5091 135.859 46.0824C135.514 49.6557 133.944 52.9995 131.416 55.5457C129.96 57.0053 128.23 58.162 126.326 58.949C124.422 59.736 122.38 60.1378 120.32 60.1311ZM120.32 33.9572C118.919 33.9506 117.53 34.2227 116.234 34.7578C114.939 35.293 113.763 36.0804 112.774 37.0743C111.786 38.0683 111.004 39.249 110.476 40.5478C109.947 41.8466 109.682 43.2376 109.695 44.6399C109.695 46.0248 109.97 47.3957 110.506 48.6725C111.042 49.9493 111.827 51.1063 112.815 52.0757C114.81 54.0585 117.508 55.1713 120.32 55.1713C123.132 55.1713 125.829 54.0585 127.824 52.0757C128.8 51.0997 129.574 49.9404 130.101 48.6644C130.628 47.3883 130.898 46.0207 130.896 44.6399C130.862 41.8444 129.732 39.1739 127.75 37.2041C126.791 36.2001 125.643 35.3962 124.372 34.8388C123.101 34.2815 121.732 33.9819 120.345 33.9572H120.32Z" fill="black"/>
<path d="M10.1797 154.937L37.7705 94.9551L70.1167 127.326L10.1797 154.937ZM39.2813 103.481L20.2848 144.824L61.5719 125.789L39.2813 103.481Z" fill="black"/>
<path d="M158.907 34.7744C158.685 34.7988 158.46 34.7988 158.238 34.7744C157.922 34.6885 157.625 34.5405 157.366 34.339C157.107 34.1375 156.89 33.8864 156.729 33.6005C156.568 33.3145 156.465 32.9993 156.426 32.6733C156.388 32.3472 156.414 32.0166 156.505 31.7009C157.842 26.942 158.981 19.7045 158.981 19.6301C159.086 18.9728 159.448 18.3841 159.987 17.9937C160.526 17.6032 161.197 17.443 161.854 17.5481C162.511 17.6533 163.099 18.0153 163.49 18.5545C163.88 19.0937 164.04 19.766 163.935 20.4233C163.935 20.7455 162.696 28.0078 161.285 33.0394C161.126 33.545 160.809 33.9863 160.381 34.2985C159.953 34.6108 159.437 34.7776 158.907 34.7744Z" fill="black"/>
</svg>
